<?xml version="1.0" encoding="UTF-8"?>
<svg width="2271px" height="1508px" viewBox="0 0 2271 1508" version="1.1" xmlns="http://www.w3.org/2000/svg" xmlns:xlink="http://www.w3.org/1999/xlink">
    <!-- Generator: Sketch 49.2 (51160) - http://www.bohemiancoding.com/sketch -->
    <title>Artboard</title>
    <desc>Created with Sketch.</desc>
    <defs></defs>
    <g id="Artboard" stroke="none" stroke-width="1" fill="none" fill-rule="evenodd">
        <g id="bg-pattern-users" transform="translate(-25.000000, -57.000000)" fill-rule="nonzero" stroke-width="1.51">
            <polygon id="Shape" stroke="#E3912C" fill="#E3912C" points="1838 1554 1538 1592 1986 1566"></polygon>
            <polygon id="Shape" stroke="#E18D2A" fill="#E18D2A" points="1986 1566 1538 1592 2112 1562"></polygon>
            <polygon id="Shape" stroke="#E08D2A" fill="#E08D2A" points="2256 1217 2148 1384 2269 1430"></polygon>
            <polygon id="Shape" stroke="#E7982F" fill="#E7982F" points="2238 1096 2256 1217 2274 974"></polygon>
            <polygon id="Shape" stroke="#ECAB3A" fill="#ECAB3A" points="2235 621 2156 659 2315 837"></polygon>
            <polygon id="Shape" stroke="#EDA938" fill="#EDA938" points="2156 659 2146 817 2315 837"></polygon>
            <polygon id="Shape" stroke="#E79B31" fill="#E79B31" points="2274 974 2256 1217 2315 837"></polygon>
            <polygon id="Shape" stroke="#E5942D" fill="#E5942D" points="2256 1217 2269 1430 2315 837"></polygon>
            <polygon id="Shape" stroke="#E18E2B" fill="#E18E2B" points="2269 1430 2296 1565 2315 837"></polygon>
            <polygon id="Shape" stroke="#EBAB3B" fill="#EBAB3B" points="2296 511 2235 621 2315 837"></polygon>
            <polygon id="Shape" stroke="#ECB643" fill="#ECB643" points="2185 375 2296 511 2341 320"></polygon>
            <polygon id="Shape" stroke="#EDB94A" fill="#EDB94A" points="2257 214 2185 375 2341 320"></polygon>
            <polygon id="Shape" stroke="#ECBA51" fill="#ECBA51" points="2296 57 2257 214 2341 320"></polygon>
            <polygon id="Shape" stroke="#EAA335" fill="#EAA335" points="2146 817 2274 974 2315 837"></polygon>
            <polygon id="Shape" stroke="#ECA435" fill="#ECA435" points="2146 817 2108 917 2274 974"></polygon>
            <polygon id="Shape" stroke="#DA8428" fill="#DA8428" points="2269 1430 2111 1565 2296 1565"></polygon>
            <polygon id="Shape" stroke="#EFBE58" fill="#EFBE58" points="2112 20 2257 214 2296 57"></polygon>
            <polygon id="Shape" stroke="#EDB23F" fill="#EDB23F" points="2130 496 2235 621 2296 511"></polygon>
            <polygon id="Shape" stroke="#EDB643" fill="#EDB643" points="2185 375 2130 496 2296 511"></polygon>
            <polygon id="Shape" stroke="#E5922C" fill="#E5922C" points="2140 1200 2148 1384 2256 1217"></polygon>
            <polygon id="Shape" stroke="#F0C055" fill="#F0C055" points="2112 20 2096 237 2257 214"></polygon>
            <polygon id="Shape" stroke="#DD8829" fill="#DD8829" points="2148 1384 2112 1565 2269 1430"></polygon>
            <polygon id="Shape" stroke="#E99D31" fill="#E99D31" points="2110 1037 2238 1096 2274 974"></polygon>
            <polygon id="Shape" stroke="#E7962E" fill="#E7962E" points="2238 1096 2140 1200 2256 1217"></polygon>
            <polygon id="Shape" stroke="#EFBD4D" fill="#EFBD4D" points="2096 237 2185 375 2257 214"></polygon>
            <polygon id="Shape" stroke="#EBA133" fill="#EBA133" points="2108 917 2110 1037 2274 974"></polygon>
            <polygon id="Shape" stroke="#EEB23F" fill="#EEB23F" points="2130 496 2156 659 2235 621"></polygon>
            <polygon id="Shape" stroke="#E99B30" fill="#E99B30" points="2110 1037 2140 1200 2238 1096"></polygon>
            <polygon id="Shape" stroke="#F3C458" fill="#F3C458" points="1966 138 2096 237 2112 20"></polygon>
            <polygon id="Shape" stroke="#E7952D" fill="#E7952D" points="2140 1200 1986 1231 2148 1384"></polygon>
            <polygon id="Shape" stroke="#F1BD46" fill="#F1BD46" points="1948 335 2130 496 2185 375"></polygon>
            <polygon id="Shape" stroke="#F1BF4C" fill="#F1BF4C" points="2096 237 1948 335 2185 375"></polygon>
            <polygon id="Shape" stroke="#E08C2A" fill="#E08C2A" points="1947 1392 1986 1566 2112 1566"></polygon>
            <polygon id="Shape" stroke="#F3BF46" fill="#F3BF46" points="1948 335 1951 467 2130 496"></polygon>
            <polygon id="Shape" stroke="#EB9E31" fill="#EB9E31" points="2110 1037 2024 1063 2140 1200"></polygon>
            <polygon id="Shape" stroke="#E08D2A" fill="#E08D2A" points="1947 1392 2111.5 1565 2148 1384"></polygon>
            <polygon id="Shape" stroke="#E6942D" fill="#E6942D" points="1986 1231 1947 1392 2148 1384"></polygon>
            <polygon id="Shape" stroke="#F0AF3A" fill="#F0AF3A" points="1944 754 2146 817 2156 659"></polygon>
            <polygon id="Shape" stroke="#F2B33D" fill="#F2B33D" points="1975 642 1944 754 2156 659"></polygon>
            <polygon id="Shape" stroke="#F0B540" fill="#F0B540" points="2130 496 1975 642 2156 659"></polygon>
            <polygon id="Shape" stroke="#EB9C30" fill="#EB9C30" points="2024 1063 1986 1231 2140 1200"></polygon>
            <polygon id="Shape" stroke="#EFA937" fill="#EFA937" points="1940 895 2108 917 2146 817"></polygon>
            <polygon id="Shape" stroke="#F1AE39" fill="#F1AE39" points="1944 754 1940 895 2146 817"></polygon>
            <polygon id="Shape" stroke="#F2BA42" fill="#F2BA42" points="1951 467 1975 642 2130 496"></polygon>
            <polygon id="Shape" stroke="#EDA333" fill="#EDA333" points="2108 917 2024 1063 2110 1037"></polygon>
            <polygon id="Shape" stroke="#EFA735" fill="#EFA735" points="1940 895 2024 1063 2108 917"></polygon>
            <polygon id="Shape" stroke="#F4C75D" fill="#F4C75D" points="1932 37 1966 138 2112 20"></polygon>
            <polygon id="Shape" stroke="#F4C452" fill="#F4C452" points="1966 138 1948 335 2096 237"></polygon>
            <polygon id="Shape" stroke="#F4BD43" fill="#F4BD43" points="1951 467 1847 521 1975 642"></polygon>
            <polygon id="Shape" stroke="#E9992F" fill="#E9992F" points="1865 1336 1947 1392 1986 1231"></polygon>
            <polygon id="Shape" stroke="#F1AA36" fill="#F1AA36" points="1940 895 1871 911 2024 1063"></polygon>
            <polygon id="Shape" stroke="#F1A835" fill="#F1A835" points="1871 911 1814 1129 2024 1063"></polygon>
            <polygon id="Shape" stroke="#EEA132" fill="#EEA132" points="1814 1129 1986 1231 2024 1063"></polygon>
            <polygon id="Shape" stroke="#F6C755" fill="#F6C755" points="1835 154 1948 335 1966 138"></polygon>
            <polygon id="Shape" stroke="#E28F2B" fill="#E28F2B" points="1947 1392 1838 1554 1986 1566"></polygon>
            <polygon id="Shape" stroke="#EC9D30" fill="#EC9D30" points="1817 1245 1865 1336 1986 1231"></polygon>
            <polygon id="Shape" stroke="#EFA131" fill="#EFA131" points="1814 1129 1817 1245 1986 1231"></polygon>
            <polygon id="Shape" stroke="#F4B33A" fill="#F4B33A" points="1821 779 1940 895 1944 754"></polygon>
            <polygon id="Shape" stroke="#F7C851" fill="#F7C851" points="1835 154 1818 364 1948 335"></polygon>
            <polygon id="Shape" stroke="#F5C549" fill="#F5C549" points="1948 335 1818 364 1951 467"></polygon>
            <polygon id="Shape" stroke="#F6C95E" fill="#F6C95E" points="1932 37 1886 55 1966 138"></polygon>
            <polygon id="Shape" stroke="#F5B83E" fill="#F5B83E" points="1808 672 1944 754 1975 642"></polygon>
            <polygon id="Shape" stroke="#F6BC42" fill="#F6BC42" points="1847 521 1808 672 1975 642"></polygon>
            <polygon id="Shape" stroke="#F4B139" fill="#F4B139" points="1821 779 1871 911 1940 895"></polygon>
            <polygon id="Shape" stroke="#F7C95C" fill="#F7C95C" points="1886 55 1835 154 1966 138"></polygon>
            <polygon id="Shape" stroke="#F6B83E" fill="#F6B83E" points="1808 672 1821 779 1944 754"></polygon>
            <polygon id="Shape" stroke="#E7942D" fill="#E7942D" points="1865 1336 1838 1554 1947 1392"></polygon>
            <polygon id="Shape" stroke="#F6C347" fill="#F6C347" points="1818 364 1847 521 1951 467"></polygon>
            <polygon id="Shape" stroke="#FBD263" fill="#FBD263" points="1564 9 1632 82 1886 55"></polygon>
            <polygon id="Shape" stroke="#F9CC54" fill="#F9CC54" points="1731 231 1818 364 1835 154"></polygon>
            <polygon id="Shape" stroke="#EDBA51" fill="#EDBA51" points="227 1545 18 1565 665 1590"></polygon>
            <polygon id="Shape" stroke="#E6952E" fill="#E6952E" points="1670 1498 1538 1592 1838 1554"></polygon>
            <polygon id="Shape" stroke="#E7962D" fill="#E7962D" points="1670 1498 1838 1554 1865 1336"></polygon>
            <polygon id="Shape" stroke="#EB9B30" fill="#EB9B30" points="1666 1366 1670 1498 1865 1336"></polygon>
            <polygon id="Shape" stroke="#F4AD37" fill="#F4AD37" points="1655 1060 1814 1129 1871 911"></polygon>
            <polygon id="Shape" stroke="#F6B239" fill="#F6B239" points="1636 950 1655 1060 1871 911"></polygon>
            <polygon id="Shape" stroke="#FACE5E" fill="#FACE5E" points="1632 82 1835 154 1886 55"></polygon>
            <polygon id="Shape" stroke="#F8C043" fill="#F8C043" points="1694 602 1808 672 1847 521"></polygon>
            <polygon id="Shape" stroke="#F8C749" fill="#F8C749" points="1818 364 1708 391 1847 521"></polygon>
            <polygon id="Shape" stroke="#F7B53B" fill="#F7B53B" points="1821 779 1667 830 1871 911"></polygon>
            <polygon id="Shape" stroke="#F7B53B" fill="#F7B53B" points="1667 830 1636 950 1871 911"></polygon>
            <polygon id="Shape" stroke="#ED9E30" fill="#ED9E30" points="1817 1245 1666 1366 1865 1336"></polygon>
            <polygon id="Shape" stroke="#FAC849" fill="#FAC849" points="1708 391 1654 465 1847 521"></polygon>
            <polygon id="Shape" stroke="#F9C546" fill="#F9C546" points="1654 465 1694 602 1847 521"></polygon>
            <polygon id="Shape" stroke="#F2A633" fill="#F2A633" points="1814 1129 1690 1186 1817 1245"></polygon>
            <polygon id="Shape" stroke="#FBCF5C" fill="#FBCF5C" points="1632 82 1731 231 1835 154"></polygon>
            <polygon id="Shape" stroke="#F0A232" fill="#F0A232" points="1690 1186 1666 1366 1817 1245"></polygon>
            <polygon id="Shape" stroke="#F9CC4F" fill="#F9CC4F" points="1731 231 1708 391 1818 364"></polygon>
            <polygon id="Shape" stroke="#F8BA3E" fill="#F8BA3E" points="1808 672 1667 830 1821 779"></polygon>
            <polygon id="Shape" stroke="#F9BE40" fill="#F9BE40" points="1694 602 1667 830 1808 672"></polygon>
            <polygon id="Shape" stroke="#F4AA36" fill="#F4AA36" points="1655 1060 1690 1186 1814 1129"></polygon>
            <polygon id="Shape" stroke="#F9BF41" fill="#F9BF41" points="1580 758 1667 830 1694 602"></polygon>
            <polygon id="Shape" stroke="#FACF53" fill="#FACF53" points="1592 246 1708 391 1731 231"></polygon>
            <polygon id="Shape" stroke="#FBD15B" fill="#FBD15B" points="1632 82 1592 246 1731 231"></polygon>
            <polygon id="Shape" stroke="#F5AD37" fill="#F5AD37" points="1655 1060 1575 1108 1690 1186"></polygon>
            <polygon id="Shape" stroke="#F2A734" fill="#F2A734" points="1520 1227 1666 1366 1690 1186"></polygon>
            <polygon id="Shape" stroke="#FAC444" fill="#FAC444" points="1512 624 1580 758 1694 602"></polygon>
            <polygon id="Shape" stroke="#FACC4C" fill="#FACC4C" points="1550 444 1654 465 1708 391"></polygon>
            <polygon id="Shape" stroke="#FBCF4F" fill="#FBCF4F" points="1592 246 1550 444 1708 391"></polygon>
            <polygon id="Shape" stroke="#F8B83D" fill="#F8B83D" points="1574 919 1636 950 1667 830"></polygon>
            <polygon id="Shape" stroke="#EB9D31" fill="#EB9D31" points="1666 1366 1536 1425 1670 1498"></polygon>
            <polygon id="Shape" stroke="#FAC747" fill="#FAC747" points="1654 465 1512 624 1694 602"></polygon>
            <polygon id="Shape" stroke="#FBCB4A" fill="#FBCB4A" points="1550 444 1512 624 1654 465"></polygon>
            <polygon id="Shape" stroke="#F5AC37" fill="#F5AC37" points="1575 1108 1520 1227 1690 1186"></polygon>
            <polygon id="Shape" stroke="#FCD251" fill="#FCD251" points="1485 358 1550 444 1592 246"></polygon>
            <polygon id="Shape" stroke="#EFA433" fill="#EFA433" points="1520 1227 1536 1425 1666 1366"></polygon>
            <polygon id="Shape" stroke="#E99B30" fill="#E99B30" points="1536 1425 1538 1592 1670 1498"></polygon>
            <polygon id="Shape" stroke="#F9BC3E" fill="#F9BC3E" points="1580 758 1574 919 1667 830"></polygon>
            <polygon id="Shape" stroke="#F7B53B" fill="#F7B53B" points="1574 919 1575 1108 1636 950"></polygon>
            <polygon id="Shape" stroke="#F6B139" fill="#F6B139" points="1636 950 1575 1108 1655 1060"></polygon>
            <polygon id="Shape" stroke="#FCD55E" fill="#FCD55E" points="1407 164 1592 246 1632 82"></polygon>
            <polygon id="Shape" stroke="#FCD764" fill="#FCD764" points="1564 9 1407 164 1632 82"></polygon>
            <polygon id="Shape" stroke="#FDD966" fill="#FDD966" points="1425 32 1407 164 1564 9"></polygon>
            <polygon id="Shape" stroke="#F8B93E" fill="#F8B93E" points="1345 938 1408 1115 1574 919"></polygon>
            <polygon id="Shape" stroke="#F7B53B" fill="#F7B53B" points="1574 919 1408 1115 1575 1108"></polygon>
            <polygon id="Shape" stroke="#FABE40" fill="#FABE40" points="1357 845 1574 919 1580 758"></polygon>
            <polygon id="Shape" stroke="#FCD559" fill="#FCD559" points="1407 164 1485 358 1592 246"></polygon>
            <polygon id="Shape" stroke="#FDD657" fill="#FDD657" points="1407 164 1433 350 1485 358"></polygon>
            <polygon id="Shape" stroke="#F0A635" fill="#F0A635" points="1520 1227 1390 1396 1536 1425"></polygon>
            <polygon id="Shape" stroke="#F6B039" fill="#F6B039" points="1408 1115 1520 1227 1575 1108"></polygon>
            <polygon id="Shape" stroke="#FBC746" fill="#FBC746" points="1512 624 1339 659 1580 758"></polygon>
            <polygon id="Shape" stroke="#FCC544" fill="#FCC544" points="1339 659 1357 845 1580 758"></polygon>
            <polygon id="Shape" stroke="#E89C31" fill="#E89C31" points="1536 1425 1395 1588 1538 1592"></polygon>
            <polygon id="Shape" stroke="#FBCD4B" fill="#FBCD4B" points="1349 518 1512 624 1550 444"></polygon>
            <polygon id="Shape" stroke="#FABF40" fill="#FABF40" points="1357 845 1345 938 1574 919"></polygon>
            <polygon id="Shape" stroke="#EBA133" fill="#EBA133" points="1390 1396 1395 1588 1536 1425"></polygon>
            <polygon id="Shape" stroke="#FCD350" fill="#FCD350" points="1485 358 1433 350 1550 444"></polygon>
            <polygon id="Shape" stroke="#FCD24F" fill="#FCD24F" points="1433 350 1349 518 1550 444"></polygon>
            <polygon id="Shape" stroke="#F2AB37" fill="#F2AB37" points="1339 1264 1390 1396 1520 1227"></polygon>
            <polygon id="Shape" stroke="#F6B038" fill="#F6B038" points="1408 1115 1339 1264 1520 1227"></polygon>
            <polygon id="Shape" stroke="#FCCD4A" fill="#FCCD4A" points="1349 518 1339 659 1512 624"></polygon>
            <polygon id="Shape" stroke="#FDC946" fill="#FDC946" points="1339 659 1269 739 1357 845"></polygon>
            <polygon id="Shape" stroke="#EDA636" fill="#EDA636" points="1221 1436 1249 1583 1390 1396"></polygon>
            <polygon id="Shape" stroke="#EAA234" fill="#EAA234" points="1390 1396 1249 1583 1395 1588"></polygon>
            <polygon id="Shape" stroke="#F9BA3E" fill="#F9BA3E" points="1345 938 1275 1085 1408 1115"></polygon>
            <polygon id="Shape" stroke="#FDDB64" fill="#FDDB64" points="1235 156 1407 164 1425 32"></polygon>
            <polygon id="Shape" stroke="#FDD550" fill="#FDD550" points="1238 479 1349 518 1433 350"></polygon>
            <polygon id="Shape" stroke="#FED953" fill="#FED953" points="1188 392 1238 479 1433 350"></polygon>
            <polygon id="Shape" stroke="#FDDA5D" fill="#FDDA5D" points="1407 164 1235 156 1433 350"></polygon>
            <polygon id="Shape" stroke="#FEDB59" fill="#FEDB59" points="1235 156 1188 392 1433 350"></polygon>
            <polygon id="Shape" stroke="#EBAD3D" fill="#EBAD3D" points="922 1560 665 1590 1034 1584"></polygon>
            <polygon id="Shape" stroke="#FEDF69" fill="#FEDF69" points="1181 0 1235 156 1425 32"></polygon>
            <polygon id="Shape" stroke="#F7B53B" fill="#F7B53B" points="1275 1085 1339 1264 1408 1115"></polygon>
            <polygon id="Shape" stroke="#ECB94A" fill="#ECB94A" points="469 1547 227 1545 665 1590"></polygon>
            <polygon id="Shape" stroke="#F0AB37" fill="#F0AB37" points="1339 1264 1221 1436 1390 1396"></polygon>
            <polygon id="Shape" stroke="#F7B53B" fill="#F7B53B" points="1275 1085 1188 1258 1339 1264"></polygon>
            <polygon id="Shape" stroke="#F3AF39" fill="#F3AF39" points="1188 1258 1221 1436 1339 1264"></polygon>
            <polygon id="Shape" stroke="#FBBF40" fill="#FBBF40" points="1216 913 1275 1085 1345 938"></polygon>
            <polygon id="Shape" stroke="#FDCF4B" fill="#FDCF4B" points="1221 675 1339 659 1349 518"></polygon>
            <polygon id="Shape" stroke="#FDD34D" fill="#FDD34D" points="1238 479 1221 675 1349 518"></polygon>
            <polygon id="Shape" stroke="#FBC342" fill="#FBC342" points="1216 913 1345 938 1357 845"></polygon>
            <polygon id="Shape" stroke="#FDC644" fill="#FDC644" points="1269 739 1216 913 1357 845"></polygon>
            <polygon id="Shape" stroke="#FDCD49" fill="#FDCD49" points="1221 675 1269 739 1339 659"></polygon>
            <polygon id="Shape" stroke="#FFDE5A" fill="#FFDE5A" points="1140 380 1188 392 1235 156"></polygon>
            <polygon id="Shape" stroke="#FFE160" fill="#FFE160" points="1071 167 1140 380 1235 156"></polygon>
            <polygon id="Shape" stroke="#FFE26A" fill="#FFE26A" points="1181 0 1123 65 1235 156"></polygon>
            <polygon id="Shape" stroke="#FED44E" fill="#FED44E" points="1117 609 1221 675 1238 479"></polygon>
            <polygon id="Shape" stroke="#FECB46" fill="#FECB46" points="1079 752 1216 913 1269 739"></polygon>
            <polygon id="Shape" stroke="#F9BA3D" fill="#F9BA3D" points="1116 1109 1188 1258 1275 1085"></polygon>
            <polygon id="Shape" stroke="#FBC141" fill="#FBC141" points="1216 913 1116 992 1275 1085"></polygon>
            <polygon id="Shape" stroke="#FABF40" fill="#FABF40" points="1116 992 1116 1109 1275 1085"></polygon>
            <polygon id="Shape" stroke="#FECE49" fill="#FECE49" points="1221 675 1079 752 1269 739"></polygon>
            <polygon id="Shape" stroke="#FFE972" fill="#FFE972" points="789 9 976 84 1181 0"></polygon>
            <polygon id="Shape" stroke="#F8B93D" fill="#F8B93D" points="1116 1109 1126 1250 1188 1258"></polygon>
            <polygon id="Shape" stroke="#F2B03A" fill="#F2B03A" points="1188 1258 1095 1412 1221 1436"></polygon>
            <polygon id="Shape" stroke="#EEAB39" fill="#EEAB39" points="1095 1412 1034 1584 1221 1436"></polygon>
            <polygon id="Shape" stroke="#FED851" fill="#FED851" points="1084 516 1117 609 1238 479"></polygon>
            <polygon id="Shape" stroke="#EBA737" fill="#EBA737" points="1221 1436 1034 1584 1249 1583"></polygon>
            <polygon id="Shape" stroke="#FEDA53" fill="#FEDA53" points="1188 392 1084 516 1238 479"></polygon>
            <polygon id="Shape" stroke="#F4B43B" fill="#F4B43B" points="1126 1250 1095 1412 1188 1258"></polygon>
            <polygon id="Shape" stroke="#FFE267" fill="#FFE267" points="1123 65 1071 167 1235 156"></polygon>
            <polygon id="Shape" stroke="#FEF57C" fill="#FEF57C" points="307 22 532 59 789 9"></polygon>
            <polygon id="Shape" stroke="#FEDC54" fill="#FEDC54" points="1140 380 1084 516 1188 392"></polygon>
            <polygon id="Shape" stroke="#FDC845" fill="#FDC845" points="1079 752 1116 992 1216 913"></polygon>
            <polygon id="Shape" stroke="#FED14C" fill="#FED14C" points="1117 609 1079 752 1221 675"></polygon>
            <polygon id="Shape" stroke="#FFE56D" fill="#FFE56D" points="976 84 1123 65 1181 0"></polygon>
            <polygon id="Shape" stroke="#EBB03F" fill="#EBB03F" points="769 1553 665 1590 922 1560"></polygon>
            <polygon id="Shape" stroke="#FDCF4A" fill="#FDCF4A" points="894 840 944 969 1079 752"></polygon>
            <polygon id="Shape" stroke="#FDCA47" fill="#FDCA47" points="1079 752 944 969 1116 992"></polygon>
            <polygon id="Shape" stroke="#F3B53D" fill="#F3B53D" points="887 1374 1095 1412 1126 1250"></polygon>
            <polygon id="Shape" stroke="#F8BC40" fill="#F8BC40" points="1116 1109 919 1202 1126 1250"></polygon>
            <polygon id="Shape" stroke="#FEE35F" fill="#FEE35F" points="1071 167 918 317 1140 380"></polygon>
            <polygon id="Shape" stroke="#FEDD55" fill="#FEDD55" points="965 482 1084 516 1140 380"></polygon>
            <polygon id="Shape" stroke="#FEE259" fill="#FEE259" points="918 317 965 482 1140 380"></polygon>
            <polygon id="Shape" stroke="#FBC343" fill="#FBC343" points="917 1053 1116 1109 1116 992"></polygon>
            <polygon id="Shape" stroke="#FBC746" fill="#FBC746" points="944 969 917 1053 1116 992"></polygon>
            <polygon id="Shape" stroke="#FED54E" fill="#FED54E" points="907 669 1079 752 1117 609"></polygon>
            <polygon id="Shape" stroke="#FFE56B" fill="#FFE56B" points="976 84 1071 167 1123 65"></polygon>
            <polygon id="Shape" stroke="#F6BA40" fill="#F6BA40" points="919 1202 887 1374 1126 1250"></polygon>
            <polygon id="Shape" stroke="#FAC243" fill="#FAC243" points="917 1053 919 1202 1116 1109"></polygon>
            <polygon id="Shape" stroke="#FED851" fill="#FED851" points="1084 516 907 669 1117 609"></polygon>
            <polygon id="Shape" stroke="#FEDB54" fill="#FEDB54" points="965 482 907 669 1084 516"></polygon>
            <polygon id="Shape" stroke="#ECAC3A" fill="#ECAC3A" points="922 1560 1034 1584 1095 1412"></polygon>
            <polygon id="Shape" stroke="#EFB13D" fill="#EFB13D" points="887 1374 922 1560 1095 1412"></polygon>
            <polygon id="Shape" stroke="#FEE665" fill="#FEE665" points="889 191 918 317 1071 167"></polygon>
            <polygon id="Shape" stroke="#FED44E" fill="#FED44E" points="907 669 894 840 1079 752"></polygon>
            <polygon id="Shape" stroke="#FFE76A" fill="#FFE76A" points="976 84 889 191 1071 167"></polygon>
            <polygon id="Shape" stroke="#FEDC55" fill="#FEDC55" points="842 639 907 669 965 482"></polygon>
            <polygon id="Shape" stroke="#FEE058" fill="#FEE058" points="822 450 842 639 965 482"></polygon>
            <polygon id="Shape" stroke="#FEE55C" fill="#FEE55C" points="918 317 830 363 965 482"></polygon>
            <polygon id="Shape" stroke="#FEE45B" fill="#FEE45B" points="830 363 822 450 965 482"></polygon>
            <polygon id="Shape" stroke="#FEE96B" fill="#FEE96B" points="841 186 889 191 976 84"></polygon>
            <polygon id="Shape" stroke="#FFEB70" fill="#FFEB70" points="789 9 841 186 976 84"></polygon>
            <polygon id="Shape" stroke="#FED650" fill="#FED650" points="742 775 894 840 907 669"></polygon>
            <polygon id="Shape" stroke="#FAC546" fill="#FAC546" points="917 1053 784 1124 919 1202"></polygon>
            <polygon id="Shape" stroke="#F9C445" fill="#F9C445" points="784 1124 819 1200 919 1202"></polygon>
            <polygon id="Shape" stroke="#F7BE43" fill="#F7BE43" points="819 1200 887 1374 919 1202"></polygon>
            <polygon id="Shape" stroke="#EEB23F" fill="#EEB23F" points="887 1374 769 1553 922 1560"></polygon>
            <polygon id="Shape" stroke="#FCCC4A" fill="#FCCC4A" points="765 901 917 1053 944 969"></polygon>
            <polygon id="Shape" stroke="#FDCF4B" fill="#FDCF4B" points="894 840 765 901 944 969"></polygon>
            <polygon id="Shape" stroke="#F0B641" fill="#F0B641" points="738 1397 769 1553 887 1374"></polygon>
            <polygon id="Shape" stroke="#FEDA53" fill="#FEDA53" points="842 639 742 775 907 669"></polygon>
            <polygon id="Shape" stroke="#FBCB4A" fill="#FBCB4A" points="765 901 784 1124 917 1053"></polygon>
            <polygon id="Shape" stroke="#FEE867" fill="#FEE867" points="889 191 841 186 918 317"></polygon>
            <polygon id="Shape" stroke="#FEE763" fill="#FEE763" points="841 186 830 363 918 317"></polygon>
            <polygon id="Shape" stroke="#F4BC43" fill="#F4BC43" points="819 1200 738 1397 887 1374"></polygon>
            <polygon id="Shape" stroke="#FED44F" fill="#FED44F" points="742 775 765 901 894 840"></polygon>
            <polygon id="Shape" stroke="#FCCF4D" fill="#FCCF4D" points="765 901 630 985 784 1124"></polygon>
            <polygon id="Shape" stroke="#F6C045" fill="#F6C045" points="672 1288 738 1397 819 1200"></polygon>
            <polygon id="Shape" stroke="#FEED6A" fill="#FEED6A" points="624 235 682 326 841 186"></polygon>
            <polygon id="Shape" stroke="#FEEE73" fill="#FEEE73" points="789 9 651 90 841 186"></polygon>
            <polygon id="Shape" stroke="#FEEA65" fill="#FEEA65" points="682 326 830 363 841 186"></polygon>
            <polygon id="Shape" stroke="#FEE158" fill="#FEE158" points="822 450 680 605 842 639"></polygon>
            <polygon id="Shape" stroke="#FEDD55" fill="#FEDD55" points="680 605 742 775 842 639"></polygon>
            <polygon id="Shape" stroke="#FEEE6F" fill="#FEEE6F" points="651 90 624 235 841 186"></polygon>
            <polygon id="Shape" stroke="#FEE95F" fill="#FEE95F" points="682 326 822 450 830 363"></polygon>
            <polygon id="Shape" stroke="#FBCD4C" fill="#FBCD4C" points="630 985 620 1075 784 1124"></polygon>
            <polygon id="Shape" stroke="#FEEA5F" fill="#FEEA5F" points="682 326 582 480 822 450"></polygon>
            <polygon id="Shape" stroke="#FEE65D" fill="#FEE65D" points="582 480 680 605 822 450"></polygon>
            <polygon id="Shape" stroke="#FEF278" fill="#FEF278" points="532 59 651 90 789 9"></polygon>
            <polygon id="Shape" stroke="#F9C547" fill="#F9C547" points="784 1124 672 1288 819 1200"></polygon>
            <polygon id="Shape" stroke="#EDB542" fill="#EDB542" points="738 1397 665 1590 769 1553"></polygon>
            <polygon id="Shape" stroke="#F9C84A" fill="#F9C84A" points="620 1075 672 1288 784 1124"></polygon>
            <polygon id="Shape" stroke="#FED851" fill="#FED851" points="742 775 601 795 765 901"></polygon>
            <polygon id="Shape" stroke="#FEDD56" fill="#FEDD56" points="680 605 601 795 742 775"></polygon>
            <polygon id="Shape" stroke="#FDD651" fill="#FDD651" points="601 795 630 985 765 901"></polygon>
            <polygon id="Shape" stroke="#F4C046" fill="#F4C046" points="672 1288 591 1338 738 1397"></polygon>
            <polygon id="Shape" stroke="#F0BA44" fill="#F0BA44" points="591 1338 665 1590 738 1397"></polygon>
            <polygon id="Shape" stroke="#F1BF4A" fill="#F1BF4A" points="441 1424 469 1547 591 1338"></polygon>
            <polygon id="Shape" stroke="#EFBA45" fill="#EFBA45" points="591 1338 469 1547 665 1590"></polygon>
            <polygon id="Shape" stroke="#F9CA4A" fill="#F9CA4A" points="620 1075 496 1215 672 1288"></polygon>
            <polygon id="Shape" stroke="#F6C649" fill="#F6C649" points="496 1215 591 1338 672 1288"></polygon>
            <polygon id="Shape" stroke="#FEE158" fill="#FEE158" points="524 663 601 795 680 605"></polygon>
            <polygon id="Shape" stroke="#FEE65C" fill="#FEE65C" points="582 480 524 663 680 605"></polygon>
            <polygon id="Shape" stroke="#FEEF68" fill="#FEEF68" points="624 235 460 393 682 326"></polygon>
            <polygon id="Shape" stroke="#FEEE63" fill="#FEEE63" points="460 393 582 480 682 326"></polygon>
            <polygon id="Shape" stroke="#FDD953" fill="#FDD953" points="601 795 452 911 630 985"></polygon>
            <polygon id="Shape" stroke="#FEF274" fill="#FEF274" points="532 59 624 235 651 90"></polygon>
            <polygon id="Shape" stroke="#FEDC57" fill="#FEDC57" points="492 808 452 911 601 795"></polygon>
            <polygon id="Shape" stroke="#FEE860" fill="#FEE860" points="442 529 524 663 582 480"></polygon>
            <polygon id="Shape" stroke="#FBCF4F" fill="#FBCF4F" points="504 1038 496 1215 620 1075"></polygon>
            <polygon id="Shape" stroke="#FEF374" fill="#FEF374" points="532 59 433 184 624 235"></polygon>
            <polygon id="Shape" stroke="#FEF16E" fill="#FEF16E" points="433 184 460 393 624 235"></polygon>
            <polygon id="Shape" stroke="#FCD553" fill="#FCD553" points="452 911 504 1038 630 985"></polygon>
            <polygon id="Shape" stroke="#FBD24F" fill="#FBD24F" points="504 1038 620 1075 630 985"></polygon>
            <polygon id="Shape" stroke="#FEE058" fill="#FEE058" points="524 663 492 808 601 795"></polygon>
            <polygon id="Shape" stroke="#F5C44B" fill="#F5C44B" points="496 1215 441 1424 591 1338"></polygon>
            <polygon id="Shape" stroke="#FEEC64" fill="#FEEC64" points="460 393 442 529 582 480"></polygon>
            <polygon id="Shape" stroke="#FEF373" fill="#FEF373" points="433 184 362 228 460 393"></polygon>
            <polygon id="Shape" stroke="#F4C44F" fill="#F4C44F" points="381 1385 441 1424 496 1215"></polygon>
            <polygon id="Shape" stroke="#FACF53" fill="#FACF53" points="291 1141 496 1215 504 1038"></polygon>
            <polygon id="Shape" stroke="#FEE25D" fill="#FEE25D" points="356 673 492 808 524 663"></polygon>
            <polygon id="Shape" stroke="#FEE661" fill="#FEE661" points="442 529 356 673 524 663"></polygon>
            <polygon id="Shape" stroke="#FEF57E" fill="#FEF57E" points="307 22 433 184 532 59"></polygon>
            <polygon id="Shape" stroke="#FEF270" fill="#FEF270" points="362 228 359 364 460 393"></polygon>
            <polygon id="Shape" stroke="#EEBB4F" fill="#EEBB4F" points="383 1494 227 1545 469 1547"></polygon>
            <polygon id="Shape" stroke="#EFBC4C" fill="#EFBC4C" points="441 1424 383 1494 469 1547"></polygon>
            <polygon id="Shape" stroke="#FFE15D" fill="#FFE15D" points="356 673 390 826 492 808"></polygon>
            <polygon id="Shape" stroke="#FEDC5A" fill="#FEDC5A" points="390 826 452 911 492 808"></polygon>
            <polygon id="Shape" stroke="#F7C852" fill="#F7C852" points="292 1229 381 1385 496 1215"></polygon>
            <polygon id="Shape" stroke="#FCD457" fill="#FCD457" points="452 911 291 1141 504 1038"></polygon>
            <polygon id="Shape" stroke="#FDD75B" fill="#FDD75B" points="312 887 291 1141 452 911"></polygon>
            <polygon id="Shape" stroke="#FACD55" fill="#FACD55" points="291 1141 292 1229 496 1215"></polygon>
            <polygon id="Shape" stroke="#FCD75E" fill="#FCD75E" points="232 948 291 1141 312 887"></polygon>
            <polygon id="Shape" stroke="#FEED69" fill="#FEED69" points="312 485 442 529 460 393"></polygon>
            <polygon id="Shape" stroke="#FEF06B" fill="#FEF06B" points="359 364 312 485 460 393"></polygon>
            <polygon id="Shape" stroke="#FEF57D" fill="#FEF57D" points="307 22 362 228 433 184"></polygon>
            <polygon id="Shape" stroke="#FEE967" fill="#FEE967" points="312 485 356 673 442 529"></polygon>
            <polygon id="Shape" stroke="#FEDC5C" fill="#FEDC5C" points="390 826 312 887 452 911"></polygon>
            <polygon id="Shape" stroke="#F1C04E" fill="#F1C04E" points="381 1385 383 1494 441 1424"></polygon>
            <polygon id="Shape" stroke="#FEEA6A" fill="#FEEA6A" points="312 485 195 584 356 673"></polygon>
            <polygon id="Shape" stroke="#FEF477" fill="#FEF477" points="229 243 359 364 362 228"></polygon>
            <polygon id="Shape" stroke="#FEF67F" fill="#FEF67F" points="307 22 229 243 362 228"></polygon>
            <polygon id="Shape" stroke="#F5C655" fill="#F5C655" points="292 1229 224 1404 381 1385"></polygon>
            <polygon id="Shape" stroke="#F2C152" fill="#F2C152" points="381 1385 224 1404 383 1494"></polygon>
            <polygon id="Shape" stroke="#FFE162" fill="#FFE162" points="356 673 218 812 390 826"></polygon>
            <polygon id="Shape" stroke="#FEDE61" fill="#FEDE61" points="218 812 312 887 390 826"></polygon>
            <polygon id="Shape" stroke="#FCD55F" fill="#FCD55F" points="232 948 179 1046 291 1141"></polygon>
            <polygon id="Shape" stroke="#EFBF53" fill="#EFBF53" points="224 1404 227 1545 383 1494"></polygon>
            <polygon id="Shape" stroke="#FEF885" fill="#FEF885" points="161 51 229 243 307 22"></polygon>
            <polygon id="Shape" stroke="#FEF171" fill="#FEF171" points="149 349 312 485 359 364"></polygon>
            <polygon id="Shape" stroke="#FEF477" fill="#FEF477" points="229 243 149 349 359 364"></polygon>
            <polygon id="Shape" stroke="#FFE668" fill="#FFE668" points="195 584 218 812 356 673"></polygon>
            <polygon id="Shape" stroke="#F7CA59" fill="#F7CA59" points="195 1204 224 1404 292 1229"></polygon>
            <polygon id="Shape" stroke="#FEEC6F" fill="#FEEC6F" points="162 509 195 584 312 485"></polygon>
            <polygon id="Shape" stroke="#FEF072" fill="#FEF072" points="149 349 162 509 312 485"></polygon>
            <polygon id="Shape" stroke="#FEDD62" fill="#FEDD62" points="218 812 232 948 312 887"></polygon>
            <polygon id="Shape" stroke="#FACF5B" fill="#FACF5B" points="291 1141 195 1204 292 1229"></polygon>
            <polygon id="Shape" stroke="#FFE76C" fill="#FFE76C" points="195 584 86 643 218 812"></polygon>
            <polygon id="Shape" stroke="#FBD15D" fill="#FBD15D" points="179 1046 195 1204 291 1141"></polygon>
            <polygon id="Shape" stroke="#F7CA5D" fill="#F7CA5D" points="195 1204 68 1265 224 1404"></polygon>
            <polygon id="Shape" stroke="#F4C75D" fill="#F4C75D" points="68 1265 48 1423 224 1404"></polygon>
            <polygon id="Shape" stroke="#F1C159" fill="#F1C159" points="224 1404 48 1423 227 1545"></polygon>
            <polygon id="Shape" stroke="#FEF782" fill="#FEF782" points="4 197 75 313 229 243"></polygon>
            <polygon id="Shape" stroke="#FEF887" fill="#FEF887" points="25 57 4 197 229 243"></polygon>
            <polygon id="Shape" stroke="#FEF888" fill="#FEF888" points="161 51 25 57 229 243"></polygon>
            <polygon id="Shape" stroke="#FDDA65" fill="#FDDA65" points="7 912 179 1046 232 948"></polygon>
            <polygon id="Shape" stroke="#FEDF67" fill="#FEDF67" points="218 812 24 845 232 948"></polygon>
            <polygon id="Shape" stroke="#FEDE69" fill="#FEDE69" points="24 845 7 912 232 948"></polygon>
            <polygon id="Shape" stroke="#FFE46C" fill="#FFE46C" points="86 643 24 845 218 812"></polygon>
            <polygon id="Shape" stroke="#EFC05B" fill="#EFC05B" points="48 1423 18 1565 227 1545"></polygon>
            <polygon id="Shape" stroke="#FEF57C" fill="#FEF57C" points="75 313 149 349 229 243"></polygon>
            <polygon id="Shape" stroke="#FCD361" fill="#FCD361" points="179 1046 48 1079 195 1204"></polygon>
            <polygon id="Shape" stroke="#FEF177" fill="#FEF177" points="149 349 0 472 162 509"></polygon>
            <polygon id="Shape" stroke="#FDD967" fill="#FDD967" points="7 912 48 1079 179 1046"></polygon>
            <polygon id="Shape" stroke="#FBD062" fill="#FBD062" points="48 1079 68 1265 195 1204"></polygon>
            <polygon id="Shape" stroke="#FFEB71" fill="#FFEB71" points="162 509 86 643 195 584"></polygon>
            <polygon id="Shape" stroke="#FEF57B" fill="#FEF57B" points="75 313 0 472 149 349"></polygon>
            <polygon id="Shape" stroke="#FFEE75" fill="#FFEE75" points="0 472 86 643 162 509"></polygon>
            <polygon id="Shape" stroke="#FFEA73" fill="#FFEA73" points="0 472 24 845 86 643"></polygon>
            <polygon id="Shape" stroke="#FEF680" fill="#FEF680" points="4 197 0 472 75 313"></polygon>
            <polygon id="Shape" stroke="#F9CD62" fill="#F9CD62" points="48 1079 48 1423 68 1265"></polygon>
            <polygon id="Shape" stroke="#F7CB63" fill="#F7CB63" points="7 912 18 1565 48 1423"></polygon>
            <polygon id="Shape" stroke="#FBD366" fill="#FBD366" points="7 912 48 1423 48 1079"></polygon>
        </g>
    </g>
</svg>