<svg xmlns="http://www.w3.org/2000/svg" width="227" height="40" viewBox="0 0 227 40">
    <g fill="none" fill-rule="evenodd">
        <path fill="#19191A" d="M9.417.03h21.308c5.147 0 9.337 4.185 9.337 9.327v21.286c0 5.142-4.19 9.327-9.337 9.327H9.417C4.27 39.97.08 35.785.08 30.643V9.357C.08 4.215 4.27.03 9.417.03z"/>
        <path fill="#FC0" d="M24.7 32.755c-.52-.797-.4-1.873-.839-2.75-.558-1.196-1.236-1.435-2.274-1.475-1.037-.04-2.195.518-2.554.757-.359.28-1.755 1.236-1.516 3.628.24 2.391 3.432 3.228 4.15 3.189-.44-.24-.878-.798-.798-1.316 2.075 1.634 3.75 1.037 3.75 1.037-.957-.917-1.077-2.631-1.037-4.026.36.478.599.717 1.117.956zm-2.475 1.116c-1.795.08-4.11-2.072-3.99-2.95.12-.876.838-1.355.918-1.394.08-.04.998-.718 1.756-.36.838.559.957 1.197.997 1.874.04.837.36 1.435.36 1.435s-.6-.16-.918-.837c-.04.917.558 1.914.877 2.232zM24.94 14.58c-.998.518-2.115.837-3.312.837a7.036 7.036 0 0 1-5.307-2.431c-1.357 2.272-3.71 9.088.758 16.422.958-.957 1.915-1.794 3.352-2.033 0-6.856 1.716-9.168 4.509-12.795zm-3.432-.877c2.634 0 4.749-2.152 4.749-4.823 0-2.67-2.115-4.823-4.749-4.823-2.633 0-4.748 2.152-4.748 4.823 0 2.67 2.115 4.823 4.748 4.823zm3.073 3.229c.439 1.674 2.194 2.71 3.391 2.352-.16.837-.399 3.188.28 4.424.279-2.312.838-3.428 2.793-5.979-4.27.797-4.709-.04-6.464-.797zm-13.367-4.385c.279-1.754-.16-3.468-1.118-4.305.16 2.232.16 4.225-1.237 6.298 1.995-1.116 3.512-1.036 5.347.04-.439-1.794-1.636-2.272-2.992-2.033z"/>
        <path fill="#1A1A1A" d="M54.197 18.717a.434.434 0 0 0 .451-.45v-2.97a.434.434 0 0 0-.451-.45h-1.128c-1.317.075-2.633.413-4.213 1.879l-.226-1.24c-.113-.301-.263-.451-.527-.451h-2.03a.434.434 0 0 0-.452.45v14.129c0 .263.188.45.451.45h3.348a.434.434 0 0 0 .451-.45v-7.515c0-1.729.527-3.232 3.198-3.382h1.128zm8.528-3.87c-4.288 0-7.862 3.42-7.862 7.628s3.574 7.778 7.862 7.778c4.1 0 7.56-3.57 7.56-7.778 0-4.209-3.46-7.628-7.56-7.628zm-.038 11.648c-1.956 0-3.573-1.69-3.573-3.983 0-2.33 1.617-3.72 3.573-3.72 1.806 0 3.348 1.428 3.348 3.72 0 2.292-1.542 3.983-3.348 3.983zm16.577 0c-1.956 0-3.573-1.69-3.573-3.983 0-2.33 1.617-3.72 3.573-3.72.828 0 2.257.038 3.01.639.225.15.413.225.564.225a.342.342 0 0 0 .263-.112l1.655-2.18a.476.476 0 0 0 .15-.338c0-.113-.037-.3-.112-.413-1.354-1.315-3.498-1.766-5.492-1.766-4.288 0-7.861 3.42-7.861 7.628s3.573 7.778 7.861 7.778c1.994 0 4.025-.339 5.454-1.917a.856.856 0 0 0 .113-.413.476.476 0 0 0-.15-.338l-1.618-2.03a.342.342 0 0 0-.263-.112c-.15 0-.339.075-.565.225-.977.827-2.181.827-3.009.827zm21.25-11.01a.434.434 0 0 0-.45-.45h-4.026c-.3 0-.45.225-.601.45l-4.514 6.013V9.173a.434.434 0 0 0-.451-.45h-3.348a.434.434 0 0 0-.452.45v20.44c0 .264.189.452.452.452h3.348a.434.434 0 0 0 .45-.451V23.3l4.515 6.313c.112.225.413.45.714.45h3.912a.434.434 0 0 0 .452-.45l-5.191-7.365 5.19-6.763zm14.593 7.891c0-.638.038-.526.038-1.052 0-4.81-3.16-7.477-7.298-7.477-5.078 0-7.26 3.645-7.26 7.815 0 5.299 3.574 7.59 7.862 7.59 1.994 0 4.175-.338 5.492-1.99a.856.856 0 0 0 .113-.414c0-.15-.038-.3-.113-.376l-1.128-1.879a.342.342 0 0 0-.264-.112c-.15 0-.338.075-.564.225-.79.714-2.483 1.015-3.573 1.015-1.091 0-3.536-.376-3.536-2.894h9.78a.434.434 0 0 0 .451-.45zm-7.184-4.584c1.128 0 3.084.564 3.084 2.367h-6.131c0-1.766 1.88-2.367 3.047-2.367zm18.366-.075a.434.434 0 0 0 .451-.45v-2.97a.434.434 0 0 0-.451-.45h-3.235V9.173a.434.434 0 0 0-.451-.45h-3.348a.434.434 0 0 0-.451.45v5.674h-2.558a.434.434 0 0 0-.452.45v2.97c0 .262.188.45.452.45h2.558v5.148c0 4.997 1.88 6.388 5.115 6.388 1.317 0 1.73 0 2.821-.376.038 0 .226-.188.226-.376 0-.075 0-.188-.038-.263l-.602-2.555c-.037-.15-.263-.3-.413-.3-.113 0-.188 0-.264.037-.489.075-.79.075-1.166.075-1.279 0-1.43-.601-1.43-3.457v-4.32h3.236zm3.316 11.573c0 2.856-.264 3.457-1.204 3.457-.715 0-1.354 0-1.918-.225-.076-.038-.15-.038-.264-.038-.15 0-.3.038-.376.15l-.79 2.292c-.037.076-.037.188-.037.263 0 .188.188.339.225.376 1.43.94 2.182.94 3.499.94 3.234 0 5.115-1.24 5.115-6.802V15.486a.434.434 0 0 0-.451-.451h-3.348a.434.434 0 0 0-.451.45V30.29zm-.339-19.313a2.439 2.439 0 0 0 2.445 2.442c1.392 0 2.52-1.09 2.52-2.442a2.519 2.519 0 0 0-2.52-2.518c-1.354 0-2.445 1.127-2.445 2.518zm14.275 3.87c-4.288 0-7.861 3.42-7.861 7.628s3.573 7.778 7.861 7.778c4.1 0 7.56-3.57 7.56-7.778 0-4.209-3.46-7.628-7.56-7.628zm-.037 11.648c-1.956 0-3.574-1.69-3.574-3.983 0-2.33 1.618-3.72 3.574-3.72 1.805 0 3.347 1.428 3.347 3.72 0 2.292-1.542 3.983-3.347 3.983zm20.418 3.119c.113.3.263.45.526.45h2.107a.434.434 0 0 0 .451-.45V15.486a.434.434 0 0 0-.451-.451h-3.348a.434.434 0 0 0-.451.45v7.628c0 1.842-.79 3.382-2.67 3.382-2.671 0-2.897-1.54-2.897-3.382v-7.627a.434.434 0 0 0-.452-.451h-3.347a.434.434 0 0 0-.452.45v8.042c0 3.57 1.881 6.726 6.132 6.726 1.467 0 2.933-.226 4.701-1.88l.15 1.24zm13.766-10.897a.434.434 0 0 0 .451-.45v-2.97a.434.434 0 0 0-.451-.45h-1.129c-1.316.075-2.633.413-4.212 1.879l-.226-1.24c-.113-.301-.263-.451-.527-.451h-2.03a.434.434 0 0 0-.452.45v14.129c0 .263.188.45.451.45h3.348a.434.434 0 0 0 .451-.45v-7.515c0-1.729.527-3.232 3.197-3.382h1.129zm5.159-3.231c-.113-.301-.263-.451-.527-.451h-2.069a.434.434 0 0 0-.45.45v14.129c0 .263.187.45.45.45h3.348a.434.434 0 0 0 .451-.45v-7.515c0-1.841.79-3.382 2.671-3.382 2.67 0 2.896 1.54 2.896 3.382v7.515c0 .263.189.45.452.45h3.347a.434.434 0 0 0 .452-.45v-8.041c0-3.57-1.88-6.726-6.131-6.726-1.467 0-2.934.225-4.702 1.879l-.188-1.24zm27.377 7.89c0-.638.037-.526.037-1.052 0-4.81-3.16-7.477-7.297-7.477-5.078 0-7.26 3.645-7.26 7.815 0 5.299 3.574 7.59 7.862 7.59 1.994 0 4.175-.338 5.492-1.99a.856.856 0 0 0 .113-.414c0-.15-.038-.3-.113-.376l-1.129-1.879a.342.342 0 0 0-.263-.112c-.15 0-.339.075-.564.225-.79.714-2.483 1.015-3.574 1.015-1.09 0-3.535-.376-3.535-2.894h9.78a.434.434 0 0 0 .45-.45zm-7.185-4.584c1.129 0 3.085.564 3.085 2.367h-6.131c0-1.766 1.88-2.367 3.046-2.367zm8.512-3.757a.434.434 0 0 0-.452.45l5.266 10.897-4.702 9.657c0 .263.188.451.452.451h3.648c.301 0 .49-.225.602-.45l9.93-20.554a.434.434 0 0 0-.451-.451h-3.573c-.301 0-.49.225-.602.45l-2.972 6.276-2.971-6.275c-.113-.226-.301-.451-.602-.451h-3.573z"/>
    </g>
</svg>
