<?xml version="1.0" encoding="UTF-8"?>
<svg width="40px" height="40px" viewBox="0 0 40 40" version="1.1" xmlns="http://www.w3.org/2000/svg" xmlns:xlink="http://www.w3.org/1999/xlink">
    <!-- Generator: Sketch 50.2 (55047) - http://www.bohemiancoding.com/sketch -->
    <title>rj-logo</title>
    <desc>Created with Sketch.</desc>
    <defs></defs>
    <g id="/launch" stroke="none" stroke-width="1" fill="none" fill-rule="evenodd">
        <g id="rj-logo">
            <rect id="Rectangle-11" fill="#1A1A1A" x="0" y="0" width="40" height="40"></rect>
            <path d="M24.6927987,32.8013411 C24.17421,32.0030145 24.2938843,30.9252736 23.8550785,30.0471143 C23.2965984,28.8496244 22.618444,28.6101264 21.5812667,28.5702101 C20.5440894,28.5302937 19.3872377,29.0891224 19.0282148,29.3286203 C18.6691919,29.6080347 17.2729916,30.5660266 17.5123402,32.9610064 C17.7516889,35.3559863 20.9430037,36.1942292 21.6610495,36.1543129 C21.2222438,35.9148149 20.783438,35.3559863 20.8632208,34.837074 C22.9375755,36.4736436 24.6130158,35.8748986 24.6130158,35.8748986 C23.6556213,34.956823 23.535947,33.2404208 23.5758385,31.8433492 C23.9348614,32.3223452 24.17421,32.5618431 24.6927987,32.8013411 L24.6927987,32.8013411 Z M22.2195296,33.9189984 C20.424415,33.998831 18.1107118,31.8433492 18.2303861,30.9651899 C18.3500604,30.0870306 19.0681062,29.6080347 19.1478891,29.5681183 C19.227672,29.528202 20.145175,28.8496244 20.9031123,29.2088713 C21.7408324,29.7677 21.8605067,30.4063613 21.9003982,31.0849389 C21.9402896,31.9231818 22.2594211,32.5219268 22.2594211,32.5219268 C22.2594211,32.5219268 21.6610495,32.3622615 21.3419181,31.6836839 C21.3020266,32.6017595 21.9003982,33.5996677 22.2195296,33.9189984 L22.2195296,33.9189984 Z M24.9321473,14.5994943 L24.9321473,14.5994943 C23.9348614,15.1184066 22.8179012,15.4377372 21.6211581,15.4377372 C19.506912,15.4377372 17.5921231,14.4797453 16.3155972,13.002841 L16.3155972,13.002841 C14.9592884,15.2780719 12.6056937,22.1037645 17.0735345,29.4483693 C18.0309289,28.4903774 18.9883234,27.6521344 20.424415,27.4126365 C20.424415,20.5470276 22.1397468,18.2318804 24.9321473,14.5994943 L24.9321473,14.5994943 Z M21.5014838,13.721335 C24.1343186,13.721335 26.2485646,11.5658531 26.2485646,8.89145895 C26.2485646,6.21706479 24.1343186,4.06158292 21.5014838,4.06158292 C18.8686491,4.06158292 16.754403,6.21706479 16.754403,8.89145895 C16.754403,11.5658531 18.8686491,13.721335 21.5014838,13.721335 L21.5014838,13.721335 Z M24.5731243,16.9545578 C25.0119301,18.6310437 26.7671533,19.6688683 27.9638964,19.3096213 C27.8043306,20.1478642 27.564982,22.5029278 28.2431364,23.740334 C28.5223765,21.4251868 29.0808566,20.3075296 31.0355369,17.7528844 C26.7671533,18.551211 26.3283475,17.7129681 24.5731243,16.9545578 L24.5731243,16.9545578 Z M11.2094934,12.5637614 C11.4887335,10.8074428 11.0499277,9.09104061 10.0925332,8.25279766 C10.252099,10.4881122 10.252099,12.4839287 8.85589871,14.5595779 C10.8504705,13.4419207 12.366345,13.5217533 14.2013511,14.5994943 C13.7625453,12.8032594 12.5658022,12.3242634 11.2094934,12.5637614 L11.2094934,12.5637614 Z" id="rolando" fill="#FFCC00"></path>
        </g>
    </g>
</svg>